<?xml version="1.0" encoding="UTF-8"?>
<svg id="Layer_2" xmlns="http://www.w3.org/2000/svg" version="1.1" viewBox="0 0 46.5 52.1">
  <!-- Generator: Adobe Illustrator 29.3.0, SVG Export Plug-In . SVG Version: 2.1.0 Build 146)  -->
  <defs>
    <style>
      .st0 {
        fill: #fff;
      }
    </style>
  </defs>
  <g id="Layer_1-2">
    <path class="st0" d="M30.6,26.6c-.6,1-1.5,1.5-3,1.5s-1-.2-1.4-.6-.6-.8-.7-1.3c-.2-1.2,0-2.8.6-4.9s.9-3.5.8-4c0-.4-.2-.6-.7-.6-1.2,0-2.5,1.2-3.8,3.7-1.4,2.5-2,5.4-2,8.6,0,4.7,1.6,7.1,4.9,7.1s5.6-1.6,7.6-4.9c2-3.2,3-7,3-11.1s-1-7.3-2.9-10c-1.9-2.7-4.8-4.1-8.5-4.1s-8.3,2.2-11.4,6.7c-3.1,4.5-4.7,9.4-4.7,14.9s1.3,8.8,4,12,6.8,4.8,12.2,4.8,9.4-1.5,12.5-4.5c3.1-3,4.7-6.2,4.8-9.7,1.3,0,2.4.5,3.3,1.4s1.2,2.1,1.2,3.6c0,2.1-.3,4.1-1,5.9-.7,1.8-1.7,3.6-3.3,5.3-1.5,1.8-3.8,3.1-7,4.2s-6.9,1.5-11.3,1.5-8-.7-11.2-2.1c-3.2-1.4-5.7-3.3-7.5-5.6-1.8-2.4-3.1-4.9-4-7.6C.4,34,0,31.2,0,28.2c0-8.9,2.2-15.8,6.7-20.8C11.2,2.5,17.1,0,24.3,0s10.3,1.8,13.3,5.3c3,3.6,4.5,7.8,4.5,12.9s-1.6,10.6-4.9,15c-3.2,4.4-7.4,6.7-12.3,6.7-7.8,0-11.7-4.1-11.7-12.4s1.3-9.2,3.8-11.6c2.5-2.3,5.7-3.5,9.6-3.5s2.9.5,3.7,1.4c.8,1,1.2,1.9,1.2,3s-.2,1.6-.6,3.2-.7,2.9-.8,3.8,0,1.9.5,2.7h0Z"/>
  </g>
</svg>