<?xml version="1.0" encoding="UTF-8"?>
<svg id="Layer_2" data-name="Layer 2" xmlns="http://www.w3.org/2000/svg" viewBox="0 0 153.38 50.52">
  <defs>
    <style>
      .cls-1 {
        fill: #fff;
      }
    </style>
  </defs>
  <g id="Layer_1-2" data-name="Layer 1">
    <g>
      <g>
        <path d="M150.04,14.18l-4.32-4.26c-1.2-1.92-2.84-2.88-4.92-2.88-3.56,0-5.79,1.2-6.68,3.59-1.51-.82-3.38-1.25-5.64-1.25-3.2,0-6.49,1.38-9.87,4.14-1.07.87-1.95,1.74-2.68,2.6-1.89-1.9-4.6-2.86-8.13-2.86-1.37,0-2.83.37-4.37,1.09l-2.39-2.36c-.83-1.34-1.92-2.02-3.26-2.02-2.83,0-5.13,1.03-6.93,3.06v-5.05c0-5.04-3.01-5.43-3.94-5.43-1.48,0-3.09.46-4.95,1.42-1.01.52-3.7,1.91-3.7,4.52v.24c-.45-.09-.9-.15-1.36-.15-3.21,0-5.85,1.44-7.95,4.3l-.91-.89c-.83-1.34-1.92-2.02-3.26-2.02-3.52,0-6.24,1.57-8.16,4.7-.67-.61-1.54-.91-2.59-.91-1.44,0-3.21.7-5.3,2.09-.22.15-.42.29-.62.43-2.19-2.41-4.96-3.62-8.32-3.62-.06,0-.13.02-.19.03-.5-.74-1.05-1.45-1.68-2.1l-3.96-3.96c-2.8-3.76-6.98-5.64-12.54-5.64-6.08,0-11,2.04-14.76,6.12C2.88,11.2,1,16.88,1,24.16c0,3.24.6,6.3,1.8,9.18s3.02,5.24,5.46,7.08l3.72,3.72c3.44,3.52,8.28,5.28,14.52,5.28,3,0,5.66-.31,7.98-.93,2.32-.62,4.16-1.42,5.52-2.4,1.3-.94,2.36-2.06,3.19-3.35.66.12,1.34.17,2.05.17,1.22,0,2.42-.21,3.6-.62,1.18-.42,2.34-1.05,3.46-1.9.36-.28.7-.61,1.02-.96,1,.64,2.3,1.17,3.91,1.59,2.3.59,3.98.89,5.04.89,0-.22.03-.94.1-2.16l2.69,2.69c1.02,1.02,2.32,1.54,3.89,1.54,1.15,0,2.4-.73,3.74-2.18.23-.25.44-.51.63-.76l.31.31c2.24,2.21,5.36,3.31,9.36,3.31,1.38,0,2.42-.55,3.14-1.66.59-.9.92-1.93,1.03-3.07.86.43,1.88.8,3.07,1.11,2.3.59,3.98.89,5.04.89,0-.22.03-.94.1-2.16l2.69,2.69c1.02,1.02,2.32,1.54,3.89,1.54,1.15,0,2.4-.73,3.74-2.18.48-.52.87-1.04,1.18-1.56,1.21.87,2.69,1.31,4.44,1.31.77,0,1.63-.15,2.59-.46.31-.1.62-.22.94-.37.55,1.22,1.31,2.14,2.3,2.75l4.38,4.38c1.2,1.12,2.78,1.68,4.74,1.68,4.04,0,7.45-.96,10.23-2.88s4.17-4.54,4.17-7.86c0-1.8-.88-3.62-2.64-5.46l-2.88-2.82c.16.04.4.06.72.06,1.46,0,2.7-.25,3.72-.74l.56.56c.92.92,1.98,1.38,3.18,1.38.2,0,.58-.08,1.14-.24.56-.16,1.31-.49,2.25-.99.94-.5,1.82-1.12,2.64-1.86.82-.74,1.53-1.8,2.13-3.18.6-1.38.9-2.93.9-4.65,0-2.88-.78-5.1-2.34-6.66Z"/>
        <path class="cls-1" d="M21.4,1c5.56,0,9.74,1.88,12.54,5.64l3.96,3.96c.63.65,1.18,1.35,1.68,2.1.06,0,.13-.03.19-.03,3.36,0,6.13,1.21,8.32,3.62.2-.14.4-.29.62-.43,2.09-1.39,3.86-2.09,5.3-2.09,1.06,0,1.92.3,2.59.91,1.92-3.14,4.64-4.7,8.16-4.7,1.34,0,2.43.67,3.26,2.02l.91.89c2.1-2.86,4.75-4.3,7.95-4.3.46,0,.92.06,1.36.15v-.24c0-2.61,2.69-4,3.7-4.52,1.85-.95,3.47-1.42,4.95-1.42.92,0,3.94.39,3.94,5.43v5.05c1.8-2.03,4.1-3.06,6.93-3.06,1.34,0,2.43.67,3.26,2.02l2.39,2.36c1.55-.73,3-1.09,4.37-1.09,3.53,0,6.24.96,8.13,2.86.73-.86,1.61-1.73,2.68-2.6,3.38-2.76,6.67-4.14,9.87-4.14,2.26,0,4.13.43,5.64,1.25.9-2.39,3.12-3.59,6.68-3.59,2.08,0,3.72.96,4.92,2.88l4.32,4.26c1.56,1.56,2.34,3.78,2.34,6.66,0,1.72-.3,3.27-.9,4.65-.6,1.38-1.31,2.44-2.13,3.18-.82.74-1.7,1.36-2.64,1.86-.94.5-1.69.83-2.25.99-.56.16-.94.24-1.14.24-1.2,0-2.26-.46-3.18-1.38l-.56-.56c-1.02.49-2.26.74-3.72.74-.32,0-.56-.02-.72-.06l2.88,2.82c1.76,1.84,2.64,3.66,2.64,5.46,0,3.32-1.39,5.94-4.17,7.86s-6.19,2.88-10.23,2.88c-1.96,0-3.54-.56-4.74-1.68l-4.38-4.38c-.99-.6-1.75-1.53-2.3-2.75-.32.14-.63.27-.94.37-.96.3-1.82.46-2.59.46-1.75,0-3.23-.44-4.44-1.31-.31.52-.7,1.04-1.18,1.56-1.34,1.46-2.59,2.18-3.74,2.18-1.57,0-2.86-.51-3.89-1.54l-2.69-2.69c-.06,1.22-.1,1.94-.1,2.16-1.06,0-2.74-.3-5.04-.89-1.19-.31-2.21-.68-3.07-1.11-.11,1.14-.44,2.17-1.03,3.07-.72,1.1-1.77,1.66-3.14,1.66-4,0-7.12-1.1-9.36-3.31l-.31-.31c-.19.25-.4.51-.63.76-1.34,1.46-2.59,2.18-3.74,2.18-1.57,0-2.86-.51-3.89-1.54l-2.69-2.69c-.06,1.22-.1,1.94-.1,2.16-1.06,0-2.74-.3-5.04-.89-1.61-.41-2.91-.94-3.91-1.59-.32.35-.65.68-1.02.96-1.12.85-2.27,1.48-3.46,1.9-1.18.42-2.38.62-3.6.62-.71,0-1.4-.06-2.05-.17-.83,1.29-1.89,2.41-3.19,3.35-1.36.98-3.2,1.78-5.52,2.4-2.32.62-4.98.93-7.98.93-6.24,0-11.08-1.76-14.52-5.28l-3.72-3.72c-2.44-1.84-4.26-4.2-5.46-7.08s-1.8-5.94-1.8-9.18c0-7.28,1.88-12.96,5.64-17.04C10.4,3.04,15.32,1,21.4,1M21.4,0c-6.34,0-11.56,2.17-15.5,6.44C1.99,10.7,0,16.66,0,24.16c0,3.36.63,6.58,1.88,9.56,1.26,3.01,3.18,5.52,5.72,7.45l3.67,3.67c3.61,3.7,8.74,5.57,15.23,5.57,3.07,0,5.84-.32,8.24-.96,2.43-.65,4.39-1.51,5.85-2.56,1.21-.87,2.24-1.91,3.08-3.08.52.06,1.04.09,1.58.09,1.32,0,2.65-.23,3.93-.68,1.28-.45,2.53-1.14,3.73-2.04.2-.15.39-.31.59-.5.97.51,2.14.95,3.49,1.3,2.41.62,4.14.92,5.29.92h1v-.84l1.08,1.08c1.21,1.21,2.76,1.83,4.59,1.83,1.45,0,2.91-.81,4.46-2.48,2.39,2.1,5.61,3.16,9.58,3.16,1.7,0,3.08-.73,3.98-2.11.43-.66.75-1.4.96-2.2.63.24,1.32.46,2.06.65,2.41.62,4.14.92,5.29.92h1v-.84l1.08,1.08c1.21,1.21,2.76,1.83,4.59,1.83,1.46,0,2.92-.82,4.48-2.51.27-.29.51-.58.73-.88,1.2.64,2.59.96,4.15.96.87,0,1.84-.17,2.89-.5.06-.02.11-.04.17-.06.57.97,1.29,1.73,2.14,2.27l4.3,4.3c1.41,1.32,3.24,1.97,5.45,1.97,4.23,0,7.86-1.03,10.8-3.06,3.05-2.11,4.6-5.03,4.6-8.68,0-2.06-.98-4.13-2.92-6.15l-1.21-1.18c.65-.09,1.26-.24,1.81-.45l.09.09c1.11,1.11,2.42,1.67,3.89,1.67.31,0,.73-.08,1.42-.28.63-.18,1.43-.53,2.44-1.07,1.01-.54,1.96-1.21,2.84-2,.92-.84,1.72-2.02,2.38-3.52.65-1.5.98-3.2.98-5.05,0-3.14-.89-5.62-2.63-7.37l-4.24-4.18c-1.38-2.16-3.3-3.25-5.7-3.25-3.51,0-5.91,1.09-7.16,3.26-1.48-.61-3.21-.92-5.16-.92-3.42,0-6.96,1.47-10.5,4.37-.78.63-1.49,1.29-2.12,1.97-2.02-1.62-4.72-2.45-8.05-2.45-1.32,0-2.71.3-4.16.9l-1.83-1.8c-1.27-1.97-2.89-2.38-4.05-2.38-2.26,0-4.25.61-5.93,1.81v-2.8c0-6.12-4.11-6.43-4.94-6.43-1.64,0-3.41.5-5.4,1.53-.95.49-3.64,1.88-4.15,4.52-.15-.01-.3-.02-.45-.02-3.16,0-5.86,1.28-8.04,3.81l-.03-.03c-1.27-1.97-2.89-2.38-4.05-2.38-3.53,0-6.37,1.45-8.43,4.31-.67-.34-1.45-.52-2.32-.52-1.64,0-3.54.72-5.8,2.21-2.21-2.13-4.94-3.25-8.13-3.31-.47-.65-.95-1.24-1.47-1.77l-3.92-3.92c-2.99-3.97-7.46-5.98-13.3-5.98h0Z"/>
      </g>
      <g>
        <path class="cls-1" d="M113.77,17.73c-1.52-1.31-3.51-1.97-5.98-1.97-1.66,0-3.52.65-5.57,1.94-1.05.67-1.83,1.35-2.34,2.04.02-.35.03-.62.04-.81,0-1.86-.22-3.25-.65-4.18-.43-.93-.95-1.39-1.56-1.39-.83,0-1.62.14-2.35.43-.74.29-1.37.64-1.9,1.06-.53.42-1.04,1.02-1.54,1.8-.5.78-.91,1.5-1.22,2.14-.32.64-.66,1.54-1.03,2.69-.37,1.15-.65,2.08-.84,2.78-.19.7-.46,1.71-.82,3.02V7.75c0-1.73-.35-2.59-1.06-2.59-1.02,0-2.26.38-3.72,1.13-1.46.75-2.18,1.42-2.18,1.99.8,0,1.32.33,1.56.98.18.49.7,3.41.64,9.1,0,.47-.01.97-.03,1.48-.04,1.54-.12,3.25-.25,5.14-.03.39-.05.79-.07,1.19-.04.81-.06,1.63-.13,2.48-.03.43-.07.86-.12,1.29-.21,1.74-.31,2.76-.31,3.05,0,.7.49,1.3,1.46,1.8.98.5,1.9.83,2.78,1.01.88.17,1.53.26,1.94.26,0-2.08.7-5.67,2.09-10.78,1.39-5.1,2.58-7.66,3.58-7.66.32,0,.48.5.48,1.49-.13.96-.26,3.16-.38,6.6-.13,3.44-.19,5.69-.19,6.74,0,2.14.36,3.62,1.08,4.44.72.82,1.53,1.22,2.42,1.22.67,0,1.4-.2,2.18-.6.78-.4,1.18-.79,1.18-1.18-1.12,0-1.68-1.33-1.68-3.98,0-.48.05-1.65.14-3.5.08-1.62.17-3.35.25-5.15.01.02.02.04.03.06.61-.9,1.3-1.57,2.06-2.02-.42.7-.62,1.84-.62,3.41,0,6.46,1.95,9.7,5.86,9.7.8,0,1.68-.22,2.64-.65s1.94-1.06,2.93-1.9,1.82-2,2.47-3.5c.66-1.5.98-3.18.98-5.04,0-2.72-.76-4.74-2.28-6.05ZM109.89,28.75c-.69,1.42-1.48,2.14-2.38,2.14-.51,0-.94-.48-1.3-1.44-.35-.96-.53-2.13-.53-3.5,0-3.42.45-5.65,1.34-6.67.51-.06.88-.1,1.1-.1,1.86,0,2.78,1.44,2.78,4.32,0,2.08-.34,3.83-1.03,5.26Z"/>
        <path class="cls-1" d="M129.25,20.72c0,.36.11.69.33.99.22.3.53.45.93.45,1.48,0,2.54-.32,3.18-.96.72-1.84,1.08-3.36,1.08-4.56,0-1.08-.55-2.03-1.65-2.85-1.1-.82-2.65-1.23-4.65-1.23-2.52,0-5.12,1.02-7.8,3.06-2.68,2.04-4.02,4.06-4.02,6.06,0,1.44.38,2.76,1.14,3.96.76,1.2,1.6,2.15,2.52,2.85s1.76,1.49,2.52,2.37c.76.88,1.14,1.74,1.14,2.58,0,1.32-.68,2.37-2.04,3.15-1.36.78-3.04,1.17-5.04,1.17,0,2.28,1.34,3.42,4.02,3.42,3.2,0,5.9-.69,8.1-2.07,2.2-1.38,3.3-3.27,3.3-5.67,0-.76-.27-1.5-.81-2.22s-1.2-1.41-1.98-2.07c-.78-.66-1.56-1.34-2.34-2.04-.78-.7-1.44-1.53-1.98-2.49s-.81-1.98-.81-3.06c0-1.4.44-2.58,1.32-3.54.88-.96,1.8-1.44,2.76-1.44s1.38.42,1.38,1.26c0,.52-.1,1.07-.3,1.65-.2.58-.3.99-.3,1.23Z"/>
        <path class="cls-1" d="M141.46,11.72c-.58-1-1.37-1.5-2.37-1.5-2.64,0-3.96,1.08-3.96,3.24,0,1.6.98,2.4,2.94,2.4,0,1.52-.42,2.86-1.26,4.02s-1.62,1.92-2.34,2.28c0,.52.22.88.66,1.08.44.2.94.24,1.5.12,1.16-.24,2.4-1.03,3.72-2.37s1.98-3.17,1.98-5.49c0-1.52-.29-2.78-.87-3.78Z"/>
        <path class="cls-1" d="M46.52,17.86c-1.52-1.31-3.51-1.97-5.98-1.97-1.66,0-3.52.65-5.57,1.94-.38.24-.72.49-1.03.73.04-.49.06-.98.06-1.48,0-3.56-1.06-6.6-3.18-9.12-2.12-2.52-5.26-3.78-9.42-3.78-5.12,0-9.27,1.76-12.45,5.28-3.18,3.52-4.77,8.42-4.77,14.7,0,2.12.3,4.14.9,6.06.6,1.92,1.54,3.72,2.82,5.4,1.28,1.68,3.06,3.01,5.34,3.99,2.28.98,4.92,1.47,7.92,1.47s5.79-.36,8.01-1.08,3.87-1.7,4.95-2.94c.97-1.11,1.67-2.24,2.14-3.38.91.87,2.08,1.31,3.51,1.31.8,0,1.68-.22,2.64-.65.96-.43,1.94-1.06,2.93-1.9.99-.83,1.82-2,2.47-3.5.66-1.5.98-3.18.98-5.04,0-2.72-.76-4.74-2.28-6.05ZM21.64,35.68c-3.88,0-6.77-1.13-8.67-3.39-1.9-2.26-2.85-5.09-2.85-8.49,0-3.84,1.1-7.35,3.3-10.53,2.2-3.18,4.9-4.77,8.1-4.77,2.68,0,4.7.96,6.06,2.88,1.36,1.92,2.04,4.28,2.04,7.08,0,2.96-.71,5.59-2.13,7.89-1.42,2.3-3.21,3.45-5.37,3.45-2.32,0-3.48-1.68-3.48-5.04,0-2.32.48-4.36,1.44-6.12.96-1.76,1.86-2.64,2.7-2.64.32,0,.48.14.48.42.08.4-.1,1.35-.54,2.85-.44,1.5-.58,2.67-.42,3.51.04.32.2.62.48.9.28.28.62.42,1.02.42,1,0,1.7-.36,2.1-1.08-.36-.6-.49-1.24-.39-1.92.1-.68.29-1.58.57-2.7.28-1.12.42-1.88.42-2.28,0-.72-.28-1.42-.84-2.1-.56-.68-1.44-1.02-2.64-1.02-2.72,0-4.98.83-6.78,2.49s-2.7,4.39-2.7,8.19c0,5.84,2.76,8.76,8.28,8.76,3.52,0,6.43-1.57,8.73-4.71,1.02-1.39,1.79-2.86,2.36-4.41.5-.61,1.04-1.09,1.63-1.43-.42.7-.62,1.84-.62,3.41,0,.16,0,.31,0,.47-.13,2.38-1.26,4.62-3.41,6.71-2.2,2.14-5.16,3.21-8.88,3.21ZM42.63,28.87c-.69,1.42-1.48,2.14-2.38,2.14-.51,0-.94-.48-1.3-1.44-.35-.96-.53-2.13-.53-3.5,0-3.42.45-5.65,1.34-6.67.51-.06.88-.1,1.1-.1,1.86,0,2.78,1.44,2.78,4.32,0,2.08-.34,3.83-1.03,5.26Z"/>
        <path class="cls-1" d="M66.35,31.54c0-.48.05-1.65.14-3.5.1-1.86.19-3.83.29-5.93.1-2.1.16-3.43.19-4.01,0-1.86-.22-3.25-.65-4.18-.43-.93-.95-1.39-1.56-1.39-.83,0-1.62.14-2.35.43-.74.29-1.37.64-1.9,1.06s-1.04,1.02-1.54,1.8-.9,1.5-1.22,2.14c-.32.64-.67,1.54-1.03,2.69-.37,1.15-.65,2.08-.84,2.78-.19.7-.46,1.71-.82,3.02v-7.54c0-1.73-.35-2.59-1.06-2.59-1.02,0-2.26.38-3.72,1.13-1.46.75-2.18,1.42-2.18,1.99.8,0,1.32.33,1.56.98.24.66.36,1.9.36,3.72,0,1.57-.1,3.22-.31,4.97-.21,1.74-.31,2.76-.31,3.05,0,.7.49,1.3,1.46,1.8.98.5,1.9.83,2.78,1.01.88.17,1.53.26,1.94.26,0-2.08.7-5.67,2.09-10.78,1.39-5.1,2.58-7.66,3.58-7.66.32,0,.48.5.48,1.49-.13.96-.26,3.16-.38,6.6-.13,3.44-.19,5.69-.19,6.74,0,2.14.36,3.62,1.08,4.44.72.82,1.53,1.22,2.42,1.22.67,0,1.4-.2,2.18-.6.78-.4,1.18-.79,1.18-1.18-1.12,0-1.68-1.33-1.68-3.98Z"/>
        <path class="cls-1" d="M76.89,11.09c-2.62,0-4.77,1.33-6.43,3.98-1.66,2.66-2.5,6-2.5,10.03,0,2.56.32,4.73.96,6.5.64,1.78,1.51,3.1,2.62,3.98,1.1.88,2.23,1.5,3.38,1.85,1.15.35,2.42.53,3.79.53.86,0,1.48-.35,1.85-1.06.37-.7.44-1.38.22-2.02-2.53,0-4.32-.74-5.38-2.23-1.06-1.49-1.58-4.01-1.58-7.56,0-3.33.29-5.92.86-7.78.58-1.86,1.3-2.78,2.16-2.78s1.26.75,1.1,2.26c-.03.29-.11.79-.24,1.51s-.21,1.23-.24,1.54c-.03.3-.02.71.05,1.22.06.51.22.88.48,1.1s.65.43,1.18.62c.53.19,1.19.29,1.99.29,0-.54.11-1.72.34-3.53s.34-3.16.34-4.06c0-1.09-.5-2.09-1.51-3.02-1.01-.93-2.15-1.39-3.43-1.39Z"/>
      </g>
    </g>
  </g>
</svg>